{
  "accessors": [
    {
      "bufferView": 2,
      "componentType": 5126,
      "count": 1254,
      "max": [
        28.47443199157715,
        2.023369073867798,
        1.1151679754257202
      ],
      "min": [
        -3.6841530799865723,
        -1.5860350131988525,
        -0.5813940167427063
      ],
      "type": "VEC3"
    },
    {
      "bufferView": 2,
      "byteOffset": 15048,
      "componentType": 5126,
      "count": 1254,
      "max": [
        0.9978383183479309,
        0.9961976408958435,
        0.9999672174453735
      ],
      "min": [
        -0.9243422150611877,
        -0.9997007250785828,
        -0.9998775124549866
      ],
      "type": "VEC3"
    },
    {
      "bufferView": 1,
      "componentType": 5126,
      "count": 1254,
      "max": [
        0.9229230284690857,
        0.35053500533103943
      ],
      "min": [
        0.0856499969959259,
        0.016811000183224678
      ],
      "type": "VEC2"
    },
    {
      "bufferView": 0,
      "componentType": 5125,
      "count": 6666,
      "type": "SCALAR"
    }
  ],
  "asset": {
    "extras": {
      "author": "haneylee99 (https://sketchfab.com/haneylee99)",
      "license": "CC-BY-4.0 (http://creativecommons.org/licenses/by/4.0/)",
      "source": "https://sketchfab.com/3d-models/uploads-files-2072572-stick-obj-5d1e28cf3f9e41038afdc95b01a4a416",
      "title": "uploads_files_2072572_Stick_Obj"
    },
    "generator": "Sketchfab-15.12.0",
    "version": "2.0"
  },
  "bufferViews": [
    {
      "buffer": 0,
      "byteLength": 26664,
      "name": "floatBufferViews",
      "target": 34963
    },
    {
      "buffer": 0,
      "byteLength": 10032,
      "byteOffset": 26664,
      "byteStride": 8,
      "name": "floatBufferViews",
      "target": 34962
    },
    {
      "buffer": 0,
      "byteLength": 30096,
      "byteOffset": 36696,
      "byteStride": 12,
      "name": "floatBufferViews",
      "target": 34962
    }
  ],
  "buffers": [
    {
      "byteLength": 66792,
      "uri": "scene.bin"
    }
  ],
  "materials": [
    {
      "doubleSided": true,
      "name": "Stick",
      "pbrMetallicRoughness": {
        "baseColorFactor": [
          0.09272,
          0.044043,
          0.009377,
          1.0
        ],
        "metallicFactor": 0.0
      }
    }
  ],
  "meshes": [
    {
      "name": "Object_0",
      "primitives": [
        {
          "attributes": {
            "NORMAL": 1,
            "POSITION": 0,
            "TEXCOORD_0": 2
          },
          "indices": 3,
          "material": 0,
          "mode": 4
        }
      ]
    }
  ],
  "nodes": [
    {
      "children": [
        1
      ],
      "matrix": [
        1.0,
        0.0,
        0.0,
        0.0,
        0.0,
        2.220446049250313e-16,
        -1.0,
        0.0,
        0.0,
        1.0,
        2.220446049250313e-16,
        0.0,
        0.0,
        0.0,
        0.0,
        1.0
      ],
      "name": "Sketchfab_model"
    },
    {
      "children": [
        2
      ],
      "name": "Stick.obj.cleaner.materialmerger.gles"
    },
    {
      "mesh": 0,
      "name": "Object_2"
    }
  ],
  "scene": 0,
  "scenes": [
    {
      "name": "Sketchfab_Scene",
      "nodes": [
        0
      ]
    }
  ]
}
