{
  "accessors": [
    {
      "bufferView": 2,
      "componentType": 5126,
      "count": 2480,
      "max": [
        30.067703247070313,
        30.067703247070313,
        59.46741485595703
      ],
      "min": [
        -30.067703247070313,
        -30.067703247070313,
        -34.35334777832031
      ],
      "type": "VEC3"
    },
    {
      "bufferView": 2,
      "byteOffset": 29760,
      "componentType": 5126,
      "count": 2480,
      "max": [
        0.999997079372406,
        0.999997079372406,
        1.0
      ],
      "min": [
        -0.999997079372406,
        -0.999997079372406,
        -1.0
      ],
      "type": "VEC3"
    },
    {
      "bufferView": 3,
      "componentType": 5126,
      "count": 2480,
      "max": [
        0.9997740983963013,
        0.9993752241134644,
        0.9992117285728455,
        1.0
      ],
      "min": [
        -0.9999837279319763,
        -0.999729335308075,
        -0.9996169805526733,
        1.0
      ],
      "type": "VEC4"
    },
    {
      "bufferView": 1,
      "componentType": 5126,
      "count": 2480,
      "max": [
        0.9915606379508972,
        0.9776610136032104
      ],
      "min": [
        0.026306621730327606,
        0.008284145966172218
      ],
      "type": "VEC2"
    },
    {
      "bufferView": 1,
      "byteOffset": 19840,
      "componentType": 5126,
      "count": 2480,
      "max": [
        0.9915606379508972,
        0.9776610136032104
      ],
      "min": [
        0.026306621730327606,
        0.008284145966172218
      ],
      "type": "VEC2"
    },
    {
      "bufferView": 1,
      "byteOffset": 39680,
      "componentType": 5126,
      "count": 2480,
      "max": [
        0.9915606379508972,
        0.9776610136032104
      ],
      "min": [
        0.026306621730327606,
        0.008284145966172218
      ],
      "type": "VEC2"
    },
    {
      "bufferView": 0,
      "componentType": 5125,
      "count": 12240,
      "type": "SCALAR"
    }
  ],
  "asset": {
    "extras": {
      "author": "bariacg (https://sketchfab.com/bariacg)",
      "license": "SKETCHFAB Editorial (https://sketchfab.com/licenses)",
      "source": "https://sketchfab.com/3d-models/hive-92ad548aebaf4dee89a2e3a5232d74c8",
      "title": "Hive"
    },
    "generator": "Sketchfab-12.63.0",
    "version": "2.0"
  },
  "bufferViews": [
    {
      "buffer": 0,
      "byteLength": 48960,
      "name": "floatBufferViews",
      "target": 34963
    },
    {
      "buffer": 0,
      "byteLength": 59520,
      "byteOffset": 48960,
      "byteStride": 8,
      "name": "floatBufferViews",
      "target": 34962
    },
    {
      "buffer": 0,
      "byteLength": 59520,
      "byteOffset": 108480,
      "byteStride": 12,
      "name": "floatBufferViews",
      "target": 34962
    },
    {
      "buffer": 0,
      "byteLength": 39680,
      "byteOffset": 168000,
      "byteStride": 16,
      "name": "floatBufferViews",
      "target": 34962
    }
  ],
  "buffers": [
    {
      "byteLength": 207680,
      "uri": "scene.bin"
    }
  ],
  "images": [
    {
      "uri": "textures/Hive_baseColor.png"
    },
    {
      "uri": "textures/Hive_metallicRoughness.png"
    },
    {
      "uri": "textures/Hive_normal.png"
    }
  ],
  "materials": [
    {
      "doubleSided": true,
      "name": "Hive",
      "normalTexture": {
        "index": 2
      },
      "pbrMetallicRoughness": {
        "baseColorTexture": {
          "index": 0
        },
        "metallicFactor": 0.0,
        "metallicRoughnessTexture": {
          "index": 1
        }
      }
    }
  ],
  "meshes": [
    {
      "name": "Hive_Hive_0",
      "primitives": [
        {
          "attributes": {
            "NORMAL": 1,
            "POSITION": 0,
            "TANGENT": 2,
            "TEXCOORD_0": 3,
            "TEXCOORD_1": 4,
            "TEXCOORD_2": 5
          },
          "indices": 6,
          "material": 0,
          "mode": 4
        }
      ]
    }
  ],
  "nodes": [
    {
      "children": [
        1
      ],
      "matrix": [
        1.0,
        0.0,
        0.0,
        0.0,
        0.0,
        2.220446049250313e-16,
        -1.0,
        0.0,
        0.0,
        1.0,
        2.220446049250313e-16,
        0.0,
        0.0,
        0.0,
        0.0,
        1.0
      ],
      "name": "Sketchfab_model"
    },
    {
      "children": [
        2
      ],
      "matrix": [
        1.0,
        0.0,
        0.0,
        0.0,
        0.0,
        0.0,
        1.0,
        0.0,
        0.0,
        -1.0,
        0.0,
        0.0,
        0.0,
        0.0,
        0.0,
        1.0
      ],
      "name": "6ce7aa51dc474e3f9fb295d57c9dcc47.fbx"
    },
    {
      "children": [
        3
      ],
      "name": "RootNode"
    },
    {
      "children": [
        4
      ],
      "matrix": [
        1.0,
        0.0,
        0.0,
        0.0,
        0.0,
        2.220446049250313e-16,
        -1.0,
        0.0,
        0.0,
        1.0,
        2.220446049250313e-16,
        0.0,
        0.0,
        0.0,
        0.0,
        1.0
      ],
      "name": "Hive"
    },
    {
      "mesh": 0,
      "name": "Hive_Hive_0"
    }
  ],
  "samplers": [
    {
      "magFilter": 9729,
      "minFilter": 9987,
      "wrapS": 10497,
      "wrapT": 10497
    }
  ],
  "scene": 0,
  "scenes": [
    {
      "name": "Sketchfab_Scene",
      "nodes": [
        0
      ]
    }
  ],
  "textures": [
    {
      "sampler": 0,
      "source": 0
    },
    {
      "sampler": 0,
      "source": 1
    },
    {
      "sampler": 0,
      "source": 2
    }
  ]
}
