<svg xmlns="http://www.w3.org/2000/svg" width="512" height="512" viewBox="0 0 512 512" version="1.1"><path d="M 243.335 131.423 C 234.552 133.553, 226.934 138.032, 219.423 145.481 C 211.838 153.005, 208.099 159.459, 205.530 169.460 C 197.264 201.654, 222.822 234.082, 256.386 233.985 C 279.473 233.918, 301.111 216.600, 306.460 193.907 C 312.940 166.417, 295.996 138.704, 268.297 131.489 C 261.490 129.716, 250.493 129.687, 243.335 131.423 M 251 339.187 C 248.525 343.075, 242.987 350.249, 238.693 355.128 L 230.887 364 255.969 364 L 281.051 364 273.275 355.143 C 268.999 350.272, 263.475 343.099, 261 339.202 C 258.525 335.305, 256.275 332.117, 256 332.117 C 255.725 332.117, 253.475 335.299, 251 339.187 M 486.252 350.500 C 486.263 352.700, 486.468 353.482, 486.707 352.238 C 486.946 350.994, 486.937 349.194, 486.687 348.238 C 486.437 347.282, 486.241 348.300, 486.252 350.500 M 25.252 351.500 C 25.263 353.700, 25.468 354.482, 25.707 353.238 C 25.946 351.994, 25.937 350.194, 25.687 349.238 C 25.437 348.282, 25.241 349.300, 25.252 351.500 M 83.250 395.689 C 84.213 395.941, 85.787 395.941, 86.750 395.689 C 87.713 395.438, 86.925 395.232, 85 395.232 C 83.075 395.232, 82.287 395.438, 83.250 395.689 M 425.250 395.689 C 426.212 395.941, 427.788 395.941, 428.750 395.689 C 429.712 395.438, 428.925 395.232, 427 395.232 C 425.075 395.232, 424.288 395.438, 425.250 395.689 M 205.408 443.322 C 217.564 458.158, 237.379 468.067, 254.942 468.095 C 272.611 468.123, 286.692 461.973, 301.441 447.787 L 310.500 439.074 256.183 439.037 L 201.866 439 205.408 443.322" stroke="none" fill="#f0c419" fill-rule="evenodd"/><path d="M 158 244.531 C 107.995 251.506, 58.178 281.243, 36.542 317.033 C 33.939 321.338, 30.462 328.770, 28.815 333.549 C 26.136 341.322, 25.857 343.254, 26.167 351.869 C 26.451 359.771, 26.998 362.536, 29.211 367.270 C 32.909 375.182, 40.265 382.054, 50.284 386.959 C 60.675 392.045, 67.672 393.847, 81.583 395.018 C 139.915 399.931, 212.364 362.212, 235.916 314.669 C 248.104 290.065, 244.094 268.020, 225.194 255.724 C 217.725 250.865, 213.105 248.774, 205 246.581 C 191.431 242.909, 174.822 242.185, 158 244.531 M 321.500 243.674 C 283.062 248.471, 263.487 269.992, 270.501 299.742 C 282.789 351.857, 364.545 400.566, 430.417 395.018 C 444.273 393.851, 451.334 392.042, 461.500 387.056 C 481.806 377.096, 489.612 360.332, 484.546 337.561 C 482.886 330.099, 482.894 329.851, 484.935 325.634 C 486.082 323.265, 488.089 320.755, 489.395 320.056 L 491.770 318.785 488.299 312.643 C 486.391 309.264, 484.711 306.382, 484.568 306.237 C 484.424 306.092, 482.616 306.680, 480.550 307.544 C 474.188 310.202, 468.756 307.787, 462.892 299.693 C 459.557 295.088, 459.080 289.680, 461.582 284.841 C 463.115 281.877, 463.078 281.690, 460.396 278.891 L 457.627 276.002 455.346 278.144 C 453.870 279.532, 451.299 280.457, 448.058 280.768 C 443.230 281.232, 442.662 280.998, 432.275 274.243 C 407.304 258.006, 381.127 248.143, 353.338 244.500 C 342.814 243.120, 328.842 242.758, 321.500 243.674" stroke="none" fill="#f9e9bd" fill-rule="evenodd"/><path d="M 193.849 19.463 C 191.493 20.793, 186.990 28.101, 187.006 30.566 C 187.010 31.080, 192.410 50.609, 199.006 73.964 C 205.603 97.319, 211 116.923, 211 117.528 C 211 118.133, 208.908 120.174, 206.351 122.064 C 199.710 126.972, 190.296 139.161, 185.852 148.608 C 175.914 169.729, 175.800 191.470, 185.500 215.250 C 186.142 216.825, 185.462 217, 178.713 217 C 134.084 217, 83.679 235.782, 47.734 265.805 C -13.329 316.806, -16.222 384.926, 41.541 411.614 C 68.873 424.242, 107.861 424.722, 146.355 412.902 C 151.775 411.238, 156.444 410.111, 156.730 410.397 C 157.016 410.682, 158.775 414.648, 160.640 419.208 C 167.346 435.611, 180.990 456.146, 191.882 466.230 C 204.906 478.288, 219.505 487.010, 233.500 491.095 C 242.681 493.775, 259.876 494.700, 269.276 493.020 C 303.667 486.874, 334.407 459.378, 350.885 420.024 C 352.962 415.064, 354.906 410.761, 355.205 410.462 C 355.504 410.162, 360.868 411.468, 367.125 413.363 C 401.755 423.853, 438.733 424.081, 464.923 413.965 C 476.628 409.443, 484.692 404.228, 493.472 395.500 C 502.118 386.905, 507.810 377.267, 510.008 367.500 C 510.626 364.750, 511.553 361.719, 512.066 360.764 C 513.218 358.621, 513.319 338.685, 512.174 339.393 C 511.719 339.673, 510.782 337.058, 510.091 333.579 C 508.499 325.574, 505.887 321.268, 501.510 319.440 C 495.654 316.993, 492.535 317.572, 487.919 321.962 C 483.785 325.895, 483.758 325.967, 484.281 331.712 C 484.571 334.895, 485.329 340.421, 485.965 343.991 C 489.123 361.718, 479.498 378.877, 461.559 387.503 C 418.800 408.063, 344.542 389.043, 299.601 346.020 C 278.680 325.992, 268.374 305.667, 269.160 285.982 C 269.447 278.766, 270.006 276.422, 272.781 270.790 C 285.364 245.246, 327.729 236.113, 375.754 248.591 C 394.763 253.530, 414.498 262.446, 433.350 274.611 C 442.602 280.580, 443.875 281.120, 447.736 280.704 C 455.778 279.839, 460.929 273.768, 459.606 266.713 C 458.652 261.628, 456.157 258.979, 445.766 252.020 C 414.310 230.950, 369.936 217.097, 333.643 217.017 C 326.551 217.002, 325.857 216.830, 326.519 215.250 C 340.657 181.512, 332.891 145.943, 306.345 122.843 C 303.680 120.524, 301.547 118.149, 301.604 117.564 C 301.661 116.979, 306.996 97.840, 313.459 75.033 C 326.846 27.797, 326.939 27.082, 320.486 21.168 C 317.122 18.085, 316.332 17.810, 312.040 18.222 C 306.348 18.769, 302.656 21.280, 300.605 26 C 299.769 27.925, 294.289 46.600, 288.428 67.500 C 282.567 88.400, 277.468 105.833, 277.096 106.240 C 276.724 106.648, 274.862 106.521, 272.960 105.960 C 266.545 104.067, 251.016 103.735, 243 105.320 C 238.875 106.135, 235.448 106.734, 235.384 106.651 C 235.321 106.568, 230.146 88.275, 223.884 66 C 210.855 19.647, 210.585 19.074, 201.438 18.354 C 198.253 18.103, 195.559 18.497, 193.849 19.463 M 243.335 131.423 C 234.552 133.553, 226.934 138.032, 219.423 145.481 C 211.838 153.005, 208.099 159.459, 205.530 169.460 C 197.264 201.654, 222.822 234.082, 256.386 233.985 C 279.473 233.918, 301.111 216.600, 306.460 193.907 C 312.940 166.417, 295.996 138.704, 268.297 131.489 C 261.490 129.716, 250.493 129.687, 243.335 131.423 M 161.500 243.620 C 118.219 250.047, 80.681 267.945, 53.964 294.891 C 26.391 322.700, 18.178 352.153, 32.237 372.800 C 38.536 382.051, 52.302 390.044, 68.176 393.669 C 78.360 395.994, 105.168 395.939, 117.500 393.568 C 169.517 383.566, 217.499 351.906, 235.814 315.500 C 241.197 304.800, 242.500 299.441, 242.500 288 C 242.500 278.662, 242.199 276.857, 239.778 271.691 C 234.251 259.894, 221.165 250.619, 203.378 245.889 C 197.383 244.295, 191.794 243.720, 180 243.484 C 171.475 243.314, 163.150 243.375, 161.500 243.620 M 469.019 279.048 C 462.993 280.422, 458.799 288.080, 460.457 294.684 C 461.369 298.317, 466.559 304.721, 470.058 306.530 C 476.191 309.701, 484.646 307.519, 487.483 302.033 C 490.236 296.708, 489.468 291.772, 485.008 286.129 C 479.523 279.191, 475.741 277.515, 469.019 279.048 M 251 339.187 C 248.525 343.075, 242.987 350.249, 238.693 355.128 L 230.887 364 255.969 364 L 281.051 364 273.275 355.143 C 268.999 350.272, 263.475 343.099, 261 339.202 C 258.525 335.305, 256.275 332.117, 256 332.117 C 255.725 332.117, 253.475 335.299, 251 339.187 M 0.374 350.500 C 0.376 356.550, 0.541 358.896, 0.740 355.713 C 0.939 352.531, 0.937 347.581, 0.736 344.713 C 0.535 341.846, 0.372 344.450, 0.374 350.500 M 205.408 443.322 C 217.564 458.158, 237.379 468.067, 254.942 468.095 C 272.611 468.123, 286.692 461.973, 301.441 447.787 L 310.500 439.074 256.183 439.037 L 201.866 439 205.408 443.322" stroke="none" fill="#090909" fill-rule="evenodd"/></svg>